<?xml version="1.0" encoding="utf-8"?>
<!-- Generator: Adobe Illustrator 16.0.0, SVG Export Plug-In . SVG Version: 6.00 Build 0)  -->
<!DOCTYPE svg PUBLIC "-//W3C//DTD SVG 1.1//EN" "http://www.w3.org/Graphics/SVG/1.1/DTD/svg11.dtd">
<svg version="1.1" id="Layer_1" xmlns="http://www.w3.org/2000/svg" xmlns:xlink="http://www.w3.org/1999/xlink" x="0px" y="0px"
	 width="792px" height="1224px" viewBox="0 0 792 1224" style="enable-background:new 0 0 792 1224;" xml:space="preserve">
<style type="text/css">
<![CDATA[
	.st0{opacity:0.53;}
	.st1{fill:#FFCF50;}
	.st2{fill:#3776AB;}
]]>
</style>
<g class="st0">
	<g>
		<path class="st2" d="M70.378,852.848c-83.044-0.705-150.934,66.051-151.636,149.095c-0.208,24.541,5.475,47.756,15.728,68.307
			l270.542-131.455C181.078,888.394,129.917,853.352,70.378,852.848z"/>
	</g>
	<g>
		<path class="st1" d="M67.832,1153.579c83.043,0.704,150.934-66.045,151.638-149.089c0.2-23.507-5.009-45.798-14.459-65.697
			L-65.53,1070.248C-41.088,1119.242,9.327,1153.084,67.832,1153.579z"/>
	</g>
</g>
<g class="st0">
	<g>
		<path class="st2" d="M721.761,1128.023c80.404,0.682,146.138-63.95,146.816-144.354c0.202-23.761-5.301-46.238-15.229-66.135
			L591.41,1044.809C614.58,1093.605,664.115,1127.536,721.761,1128.023z"/>
	</g>
	<g>
		<path class="st1" d="M724.226,836.851c-80.402-0.682-146.133,63.947-146.814,144.352c-0.193,22.759,4.849,44.342,14,63.606
			l261.938-127.273C829.685,870.097,780.871,837.329,724.226,836.851z"/>
	</g>
</g>
<g>
	<g>
		<path class="st2" d="M536.268,855.873c-149.797,0-271.225,121.431-271.222,271.215c0,44.266,10.605,86.05,29.41,122.957
			L780.4,1008.822C736.464,918.289,643.654,855.873,536.268,855.873z"/>
	</g>
	<g>
		<path class="st1" d="M536.268,1398.3c149.786,0,271.211-121.425,271.211-271.212c0.002-42.396-9.73-82.521-27.078-118.266
			l-485.944,241.223C339.288,1338.036,430.738,1398.3,536.268,1398.3z"/>
	</g>
</g>
<g>
	<g>
		<path class="st2" d="M172.715,1478.104c159.462,0,288.735-129.277,288.735-288.738c0-47.123-11.293-91.608-31.312-130.899
			l-517.327,256.808C-40.415,1411.654,58.388,1478.104,172.715,1478.104z"/>
	</g>
	<g>
		<path class="st1" d="M172.715,900.634c-159.464,0-288.733,129.269-288.733,288.73c-0.001,45.138,10.36,87.854,28.83,125.907
			l517.327-256.808C382.404,964.792,285.054,900.634,172.715,900.634z"/>
	</g>
</g>
</svg>
